# xmcd CD database file
# Generated: Sun Jan 13 17:15:01 2002 by KSCD
# 
# Track frame offsets:
#       183
#       13370
#       31980
#       43588
#       55450
#       67188
#       78075
#       89398
#       100885
#       112640
#       122773
#       136270
#       147023
#       157870
#
# Disc length: 2374 seconds
#
# Revision: 2
# Processed by: cddbd v1.4PL0 Copyright (c) Steve Scherf et al.
# Submitted via: Kscd 1.3.0
#
DISCID=b209440e
DTITLE=Kenny Rogers - Ruby don't take your love to town and other wellknown cou
DYEAR=1900
DGENRE=
TTITLE0=Ruby don't take your love to town
TTITLE1=The king of Oak street
TTITLE2=Girl get a hold of yourself
TTITLE3=Elvira
TTITLE4=I just wanna give my love to you
TTITLE5=We all got to help each other
TTITLE6=If wishes were horses
TTITLE7=Me and Bobby McGee
TTITLE8=What am I gonna do
TTITLE9=A new design
TTITLE10=But you know that I love you
TTITLE11=Last few threads of love
TTITLE12=Trying just as hard
TTITLE13=Lay it down
EXTD=
EXTT0=
EXTT1=
EXTT2=
EXTT3=
EXTT4=
EXTT5=
EXTT6=
EXTT7=
EXTT8=
EXTT9=
EXTT10=
EXTT11=
EXTT12=
EXTT13=
PLAYORDER=
